<svg width="38" height="37" viewBox="0 0 38 37" fill="none" xmlns="http://www.w3.org/2000/svg">
<g id="Frame" clip-path="url(#clip0_293_10)">
<g id="Group">
<path id="Vector" d="M37.9518 18.068C37.9518 8.08825 29.4571 0 18.9759 0C8.49468 0 0 8.08825 0 18.068C0 27.0879 6.93807 34.5621 16.0109 35.9172V23.2908H11.1928V18.068H16.0109V14.0874C16.0109 9.5598 18.8425 7.05781 23.1788 7.05781C25.2543 7.05781 27.4261 7.4107 27.4261 7.4107V11.8571H25.0319C22.6747 11.8571 21.9409 13.251 21.9409 14.6802V18.068H27.2037L26.3624 23.2908H21.9409V35.9172C31.0137 34.5621 37.9518 27.0879 37.9518 18.068Z" fill="#1877F2"/>
<path id="Vector_2" d="M26.3625 23.2908L27.2038 18.068H21.9409V14.6802C21.9409 13.251 22.6748 11.8571 25.0319 11.8571H27.4262V7.41069C27.4262 7.41069 25.2543 7.0578 23.1788 7.0578C18.8425 7.0578 16.011 9.55979 16.011 14.0874V18.068H11.1929V23.2908H16.011V35.9172C16.9783 36.0619 17.9679 36.136 18.976 36.136C19.9841 36.136 20.9736 36.0619 21.9409 35.9172V23.2908H26.3625Z" fill="white"/>
</g>
</g>
<defs>
<clipPath id="clip0_293_10">
<rect width="37.9518" height="36.136" fill="white"/>
</clipPath>
</defs>
</svg>
