<svg width="38" height="37" viewBox="0 0 38 37" fill="none" xmlns="http://www.w3.org/2000/svg">
<g id="instagram">
<g id="Group 1">
<path id="Vector" d="M26.808 36.136H11.1438C8.18941 36.1326 5.35703 35.0438 3.26794 33.1083C1.17885 31.1728 0.00361397 28.5486 0 25.8114V10.3246C0.00361397 7.58736 1.17885 4.9632 3.26794 3.02769C5.35703 1.09218 8.18941 0.00334828 11.1438 0H26.808C29.7624 0.00334828 32.5948 1.09218 34.6839 3.02769C36.773 4.9632 37.9482 7.58736 37.9518 10.3246V25.8114C37.9482 28.5486 36.773 31.1728 34.6839 33.1083C32.5948 35.0438 29.7624 36.1326 26.808 36.136ZM11.1438 2.65073C8.94703 2.65241 6.84062 3.46124 5.28661 4.89982C3.7326 6.3384 2.85785 8.28928 2.85424 10.3246V25.8114C2.85785 27.8473 3.73237 29.7988 5.28619 31.2384C6.84001 32.678 8.9464 33.4882 11.1438 33.4916H26.808C29.0048 33.4882 31.1105 32.6778 32.6632 31.238C34.2159 29.7983 35.0889 27.8467 35.0907 25.8114V10.3246C35.0889 8.28986 34.2157 6.33896 32.6628 4.9002C31.1099 3.46144 29.0042 2.65241 26.808 2.65073H11.1438Z" fill="#F05161"/>
<path id="Vector_2" d="M18.9759 27.6208C16.2285 27.6174 13.5949 26.6043 11.6528 24.8039C9.71082 23.0035 8.61912 20.5628 8.61731 18.0174C8.62054 16.7201 8.90302 15.4365 9.44822 14.2416C9.99342 13.0467 10.7904 11.9645 11.7925 11.0584C12.744 10.1907 13.8751 9.51024 15.1178 9.05797C16.3605 8.6057 17.6891 8.39097 19.0237 8.42667C22.2535 8.51524 24.9302 9.52113 26.767 11.3368C27.6522 12.2456 28.3348 13.3076 28.7754 14.4617C29.216 15.6159 29.406 16.8393 29.3344 18.0617C29.2942 20.6002 28.1955 23.0259 26.2685 24.8308C25.3124 25.7195 24.1756 26.4236 22.9238 26.9025C21.672 27.3814 20.3302 27.6255 18.9759 27.6208ZM18.7369 11.6468C17.0461 11.6518 15.4252 12.272 14.2234 13.3739C13.5548 13.9784 13.0231 14.7005 12.6596 15.4979C12.2962 16.2952 12.1081 17.1518 12.1066 18.0174C12.1088 18.8532 12.2887 19.6803 12.636 20.4517C12.9833 21.223 13.4912 21.9235 14.1306 22.513C14.7701 23.1025 15.5286 23.5695 16.3629 23.8874C17.1972 24.2054 18.0909 24.3679 18.9929 24.3659C19.895 24.3638 20.7878 24.1971 21.6204 23.8753C22.453 23.5536 23.209 23.0831 23.8453 22.4906C24.4816 21.8982 24.9857 21.1954 25.3288 20.4225C25.6719 19.6495 25.8474 18.8215 25.8452 17.9857C25.9557 16.3687 25.3715 14.7768 24.22 13.5573C23.0319 12.3806 21.2019 11.729 18.9212 11.6594L18.7369 11.6468Z" fill="#F05161"/>
<path id="Vector_3" d="M29.587 10.3879C30.922 10.3879 32.0042 9.38525 32.0042 8.1484C32.0042 6.91155 30.922 5.90887 29.587 5.90887C28.252 5.90887 27.1698 6.91155 27.1698 8.1484C27.1698 9.38525 28.252 10.3879 29.587 10.3879Z" fill="#F05161"/>
</g>
</g>
</svg>
