<svg width="38" height="36" viewBox="0 0 38 36" fill="none" xmlns="http://www.w3.org/2000/svg">
<g id="phone-call-auricular-symbol-in-black_icon-icons.com_56483 1" clip-path="url(#clip0_54_115)">
<g id="Group">
<path id="Vector" d="M37.7811 28.4961L37.5922 27.9712C37.1448 26.7448 35.6783 25.4658 34.3311 25.1288L29.3451 23.8727C27.9929 23.5334 26.0642 23.9896 25.0749 24.9018L23.2703 26.566C16.7122 24.9318 11.5696 20.189 9.79993 14.1422L11.6046 12.4779C12.5938 11.5656 13.0884 9.78913 12.7205 8.54216L11.3609 3.94164C10.9931 2.69694 9.60363 1.34457 8.27638 0.936513L7.70721 0.76003C6.37743 0.351977 4.48093 0.764651 3.49173 1.67692L0.792381 4.16859C0.310145 4.61097 0.0019369 5.87628 0.0019369 5.8809C-0.0924741 13.7845 3.26799 21.3992 9.33018 26.99C15.3775 32.567 23.6035 35.6615 32.1488 35.5951C32.1935 35.5951 33.6053 35.3154 34.0875 34.8729L36.7868 32.3835C37.7761 31.4713 38.2235 29.7224 37.7811 28.4961Z" fill="#51B832"/>
</g>
</g>
<defs>
<clipPath id="clip0_54_115">
<rect width="37.9518" height="35" fill="white" transform="translate(0 0.599365)"/>
</clipPath>
</defs>
</svg>
